<svg width="16" height="16" viewBox="0 0 29 29" fill="none" xmlns="http://www.w3.org/2000/svg">
<path d="M14.5 0.0625C6.52715 0.0625 0.0625 6.52715 0.0625 14.5C0.0625 22.4729 6.52715 28.9375 14.5 28.9375C22.4729 28.9375 28.9375 22.4729 28.9375 14.5C28.9375 6.52715 22.4729 0.0625 14.5 0.0625ZM20.7358 9.78525L13.9489 19.1954C13.8541 19.3278 13.729 19.4357 13.5841 19.5101C13.4393 19.5845 13.2787 19.6234 13.1159 19.6234C12.953 19.6234 12.7925 19.5845 12.6476 19.5101C12.5027 19.4357 12.3777 19.3278 12.2828 19.1954L8.26416 13.6267C8.1417 13.4559 8.26416 13.2174 8.47363 13.2174H9.98506C10.3138 13.2174 10.6264 13.3753 10.8197 13.646L13.1143 16.83L18.1803 9.80459C18.3736 9.53711 18.683 9.37598 19.0149 9.37598H20.5264C20.7358 9.37598 20.8583 9.61445 20.7358 9.78525V9.78525Z" fill="indigo"/>
</svg>
